<?xml version="1.0" encoding="UTF-8"?>
<svg xmlns="http://www.w3.org/2000/svg" xmlns:xlink="http://www.w3.org/1999/xlink" width="504pt" height="360pt" viewBox="0 0 504 360">
<defs>
<g>
<g id="glyph-0-0">
<path d="M 0.28125 0 L 0.28125 -6.3125 L 5.296875 -6.3125 L 5.296875 0 Z M 4.5 -0.796875 L 4.5 -5.515625 L 1.078125 -5.515625 L 1.078125 -0.796875 Z M 4.5 -0.796875 "/>
</g>
<g id="glyph-0-1">
<path d="M 2.375 -6.15625 C 3.175781 -6.15625 3.753906 -5.828125 4.109375 -5.171875 C 4.378906 -4.660156 4.515625 -3.960938 4.515625 -3.078125 C 4.515625 -2.242188 4.390625 -1.554688 4.140625 -1.015625 C 3.785156 -0.222656 3.195312 0.171875 2.375 0.171875 C 1.632812 0.171875 1.082031 -0.148438 0.71875 -0.796875 C 0.425781 -1.328125 0.28125 -2.046875 0.28125 -2.953125 C 0.28125 -3.648438 0.367188 -4.25 0.546875 -4.75 C 0.878906 -5.6875 1.488281 -6.15625 2.375 -6.15625 Z M 2.375 -0.53125 C 2.769531 -0.53125 3.085938 -0.707031 3.328125 -1.0625 C 3.566406 -1.425781 3.6875 -2.085938 3.6875 -3.046875 C 3.6875 -3.753906 3.597656 -4.332031 3.421875 -4.78125 C 3.253906 -5.226562 2.921875 -5.453125 2.421875 -5.453125 C 1.972656 -5.453125 1.640625 -5.238281 1.421875 -4.8125 C 1.210938 -4.382812 1.109375 -3.753906 1.109375 -2.921875 C 1.109375 -2.296875 1.175781 -1.789062 1.3125 -1.40625 C 1.519531 -0.820312 1.875 -0.53125 2.375 -0.53125 Z M 2.375 -0.53125 "/>
</g>
<g id="glyph-0-2">
<path d="M 2.90625 -2.171875 L 2.90625 -4.96875 L 0.9375 -2.171875 Z M 2.921875 0 L 2.921875 -1.5 L 0.21875 -1.5 L 0.21875 -2.265625 L 3.046875 -6.171875 L 3.6875 -6.171875 L 3.6875 -2.171875 L 4.59375 -2.171875 L 4.59375 -1.5 L 3.6875 -1.5 L 3.6875 0 Z M 2.921875 0 "/>
</g>
<g id="glyph-0-3">
<path d="M 2.390625 -3.578125 C 2.734375 -3.578125 3 -3.671875 3.1875 -3.859375 C 3.382812 -4.046875 3.484375 -4.273438 3.484375 -4.546875 C 3.484375 -4.773438 3.390625 -4.984375 3.203125 -5.171875 C 3.015625 -5.359375 2.734375 -5.453125 2.359375 -5.453125 C 1.992188 -5.453125 1.726562 -5.359375 1.5625 -5.171875 C 1.394531 -4.984375 1.3125 -4.757812 1.3125 -4.5 C 1.3125 -4.207031 1.414062 -3.976562 1.625 -3.8125 C 1.84375 -3.65625 2.097656 -3.578125 2.390625 -3.578125 Z M 2.4375 -0.53125 C 2.800781 -0.53125 3.097656 -0.625 3.328125 -0.8125 C 3.566406 -1.007812 3.6875 -1.300781 3.6875 -1.6875 C 3.6875 -2.082031 3.5625 -2.382812 3.3125 -2.59375 C 3.070312 -2.800781 2.765625 -2.90625 2.390625 -2.90625 C 2.015625 -2.90625 1.707031 -2.796875 1.46875 -2.578125 C 1.238281 -2.367188 1.125 -2.078125 1.125 -1.703125 C 1.125 -1.390625 1.226562 -1.113281 1.4375 -0.875 C 1.65625 -0.644531 1.988281 -0.53125 2.4375 -0.53125 Z M 1.34375 -3.28125 C 1.125 -3.375 0.957031 -3.476562 0.84375 -3.59375 C 0.613281 -3.820312 0.5 -4.125 0.5 -4.5 C 0.5 -4.957031 0.664062 -5.347656 1 -5.671875 C 1.332031 -6.003906 1.800781 -6.171875 2.40625 -6.171875 C 3 -6.171875 3.460938 -6.015625 3.796875 -5.703125 C 4.128906 -5.390625 4.296875 -5.023438 4.296875 -4.609375 C 4.296875 -4.222656 4.195312 -3.914062 4 -3.6875 C 3.894531 -3.550781 3.726562 -3.414062 3.5 -3.28125 C 3.757812 -3.164062 3.960938 -3.03125 4.109375 -2.875 C 4.378906 -2.59375 4.515625 -2.222656 4.515625 -1.765625 C 4.515625 -1.222656 4.332031 -0.765625 3.96875 -0.390625 C 3.601562 -0.015625 3.085938 0.171875 2.421875 0.171875 C 1.828125 0.171875 1.320312 0.0078125 0.90625 -0.3125 C 0.488281 -0.632812 0.28125 -1.109375 0.28125 -1.734375 C 0.28125 -2.085938 0.367188 -2.394531 0.546875 -2.65625 C 0.722656 -2.925781 0.988281 -3.132812 1.34375 -3.28125 Z M 1.34375 -3.28125 "/>
</g>
<g id="glyph-0-4">
<path d="M 0.84375 -4.359375 L 0.84375 -4.953125 C 1.394531 -5.003906 1.78125 -5.09375 2 -5.21875 C 2.226562 -5.34375 2.394531 -5.644531 2.5 -6.125 L 3.109375 -6.125 L 3.109375 0 L 2.296875 0 L 2.296875 -4.359375 Z M 0.84375 -4.359375 "/>
</g>
<g id="glyph-0-5">
<path d="M 0.28125 0 C 0.300781 -0.53125 0.40625 -0.988281 0.59375 -1.375 C 0.789062 -1.769531 1.164062 -2.128906 1.71875 -2.453125 L 2.546875 -2.921875 C 2.910156 -3.140625 3.164062 -3.328125 3.3125 -3.484375 C 3.550781 -3.710938 3.671875 -3.984375 3.671875 -4.296875 C 3.671875 -4.648438 3.5625 -4.929688 3.34375 -5.140625 C 3.132812 -5.359375 2.847656 -5.46875 2.484375 -5.46875 C 1.960938 -5.46875 1.597656 -5.265625 1.390625 -4.859375 C 1.285156 -4.648438 1.226562 -4.351562 1.21875 -3.96875 L 0.421875 -3.96875 C 0.429688 -4.5 0.53125 -4.9375 0.71875 -5.28125 C 1.050781 -5.875 1.644531 -6.171875 2.5 -6.171875 C 3.195312 -6.171875 3.707031 -5.976562 4.03125 -5.59375 C 4.363281 -5.21875 4.53125 -4.796875 4.53125 -4.328125 C 4.53125 -3.835938 4.351562 -3.414062 4 -3.0625 C 3.800781 -2.863281 3.441406 -2.617188 2.921875 -2.328125 L 2.34375 -2 C 2.0625 -1.84375 1.835938 -1.695312 1.671875 -1.5625 C 1.390625 -1.3125 1.210938 -1.035156 1.140625 -0.734375 L 4.5 -0.734375 L 4.5 0 Z M 0.28125 0 "/>
</g>
<g id="glyph-0-6">
<path d="M 2.625 -0.453125 C 3.113281 -0.472656 3.453125 -0.648438 3.640625 -0.984375 C 3.734375 -1.148438 3.78125 -1.347656 3.78125 -1.578125 C 3.78125 -1.941406 3.648438 -2.210938 3.390625 -2.390625 C 3.234375 -2.503906 2.976562 -2.609375 2.625 -2.703125 Z M 1.171875 -4.59375 C 1.171875 -4.3125 1.265625 -4.085938 1.453125 -3.921875 C 1.640625 -3.765625 1.890625 -3.65625 2.203125 -3.59375 L 2.203125 -5.609375 C 1.828125 -5.597656 1.5625 -5.484375 1.40625 -5.265625 C 1.25 -5.046875 1.171875 -4.820312 1.171875 -4.59375 Z M 0.390625 -4.546875 C 0.390625 -4.972656 0.550781 -5.359375 0.875 -5.703125 C 1.195312 -6.054688 1.644531 -6.238281 2.21875 -6.25 L 2.21875 -6.828125 L 2.625 -6.828125 L 2.625 -6.265625 C 3.195312 -6.222656 3.632812 -6.050781 3.9375 -5.75 C 4.238281 -5.457031 4.398438 -5.066406 4.421875 -4.578125 L 3.65625 -4.578125 C 3.644531 -4.796875 3.585938 -4.984375 3.484375 -5.140625 C 3.304688 -5.429688 3.019531 -5.582031 2.625 -5.59375 L 2.625 -3.515625 C 3.289062 -3.328125 3.742188 -3.148438 3.984375 -2.984375 C 4.367188 -2.710938 4.5625 -2.316406 4.5625 -1.796875 C 4.5625 -1.035156 4.3125 -0.492188 3.8125 -0.171875 C 3.539062 0.00390625 3.144531 0.125 2.625 0.1875 L 2.625 1.015625 L 2.21875 1.015625 L 2.21875 0.1875 C 1.382812 0.132812 0.816406 -0.160156 0.515625 -0.703125 C 0.359375 -0.992188 0.28125 -1.382812 0.28125 -1.875 L 1.03125 -1.875 C 1.050781 -1.476562 1.113281 -1.191406 1.21875 -1.015625 C 1.394531 -0.691406 1.722656 -0.507812 2.203125 -0.46875 L 2.203125 -2.8125 C 1.585938 -2.925781 1.128906 -3.117188 0.828125 -3.390625 C 0.535156 -3.671875 0.390625 -4.054688 0.390625 -4.546875 Z M 0.390625 -4.546875 "/>
</g>
<g id="glyph-0-7">
<path d="M 2.28125 0.171875 C 1.550781 0.171875 1.019531 -0.0234375 0.6875 -0.421875 C 0.363281 -0.828125 0.203125 -1.316406 0.203125 -1.890625 L 1.015625 -1.890625 C 1.046875 -1.492188 1.117188 -1.203125 1.234375 -1.015625 C 1.441406 -0.691406 1.804688 -0.53125 2.328125 -0.53125 C 2.734375 -0.53125 3.054688 -0.640625 3.296875 -0.859375 C 3.546875 -1.078125 3.671875 -1.359375 3.671875 -1.703125 C 3.671875 -2.128906 3.539062 -2.425781 3.28125 -2.59375 C 3.03125 -2.757812 2.671875 -2.84375 2.203125 -2.84375 C 2.148438 -2.84375 2.097656 -2.84375 2.046875 -2.84375 C 1.992188 -2.84375 1.941406 -2.84375 1.890625 -2.84375 L 1.890625 -3.515625 C 1.972656 -3.515625 2.039062 -3.507812 2.09375 -3.5 C 2.144531 -3.5 2.203125 -3.5 2.265625 -3.5 C 2.554688 -3.5 2.796875 -3.546875 2.984375 -3.640625 C 3.304688 -3.796875 3.46875 -4.082031 3.46875 -4.5 C 3.46875 -4.800781 3.359375 -5.035156 3.140625 -5.203125 C 2.921875 -5.367188 2.671875 -5.453125 2.390625 -5.453125 C 1.867188 -5.453125 1.507812 -5.28125 1.3125 -4.9375 C 1.207031 -4.75 1.144531 -4.476562 1.125 -4.125 L 0.359375 -4.125 C 0.359375 -4.582031 0.453125 -4.972656 0.640625 -5.296875 C 0.953125 -5.867188 1.503906 -6.15625 2.296875 -6.15625 C 2.929688 -6.15625 3.421875 -6.015625 3.765625 -5.734375 C 4.109375 -5.460938 4.28125 -5.0625 4.28125 -4.53125 C 4.28125 -4.144531 4.175781 -3.835938 3.96875 -3.609375 C 3.84375 -3.460938 3.679688 -3.347656 3.484375 -3.265625 C 3.804688 -3.171875 4.054688 -3 4.234375 -2.75 C 4.421875 -2.5 4.515625 -2.191406 4.515625 -1.828125 C 4.515625 -1.234375 4.316406 -0.75 3.921875 -0.375 C 3.535156 -0.0078125 2.988281 0.171875 2.28125 0.171875 Z M 2.28125 0.171875 "/>
</g>
<g id="glyph-0-8">
<path d="M 0.734375 0.890625 C 0.929688 0.859375 1.066406 0.722656 1.140625 0.484375 C 1.191406 0.347656 1.21875 0.222656 1.21875 0.109375 C 1.21875 0.0859375 1.210938 0.0664062 1.203125 0.046875 C 1.203125 0.0351562 1.203125 0.0195312 1.203125 0 L 0.734375 0 L 0.734375 -0.9375 L 1.65625 -0.9375 L 1.65625 -0.0625 C 1.65625 0.269531 1.582031 0.566406 1.4375 0.828125 C 1.300781 1.085938 1.066406 1.25 0.734375 1.3125 Z M 0.734375 0.890625 "/>
</g>
<g id="glyph-0-9">
<path d="M 1.09375 -1.5625 C 1.132812 -1.125 1.335938 -0.820312 1.703125 -0.65625 C 1.878906 -0.570312 2.09375 -0.53125 2.34375 -0.53125 C 2.800781 -0.53125 3.140625 -0.675781 3.359375 -0.96875 C 3.578125 -1.257812 3.6875 -1.582031 3.6875 -1.9375 C 3.6875 -2.363281 3.554688 -2.691406 3.296875 -2.921875 C 3.035156 -3.160156 2.71875 -3.28125 2.34375 -3.28125 C 2.082031 -3.28125 1.851562 -3.226562 1.65625 -3.125 C 1.46875 -3.019531 1.304688 -2.878906 1.171875 -2.703125 L 0.5 -2.734375 L 0.96875 -6.046875 L 4.171875 -6.046875 L 4.171875 -5.296875 L 1.5625 -5.296875 L 1.296875 -3.59375 C 1.429688 -3.695312 1.566406 -3.773438 1.703125 -3.828125 C 1.929688 -3.929688 2.195312 -3.984375 2.5 -3.984375 C 3.0625 -3.984375 3.535156 -3.800781 3.921875 -3.4375 C 4.316406 -3.070312 4.515625 -2.609375 4.515625 -2.046875 C 4.515625 -1.460938 4.332031 -0.945312 3.96875 -0.5 C 3.613281 -0.0625 3.046875 0.15625 2.265625 0.15625 C 1.753906 0.15625 1.304688 0.0117188 0.921875 -0.265625 C 0.546875 -0.546875 0.332031 -0.976562 0.28125 -1.5625 Z M 1.09375 -1.5625 "/>
</g>
<g id="glyph-0-10">
<path d="M 2.578125 -6.171875 C 3.265625 -6.171875 3.742188 -5.992188 4.015625 -5.640625 C 4.285156 -5.285156 4.421875 -4.921875 4.421875 -4.546875 L 3.65625 -4.546875 C 3.601562 -4.785156 3.53125 -4.972656 3.4375 -5.109375 C 3.25 -5.367188 2.960938 -5.5 2.578125 -5.5 C 2.148438 -5.5 1.804688 -5.296875 1.546875 -4.890625 C 1.296875 -4.492188 1.15625 -3.925781 1.125 -3.1875 C 1.300781 -3.445312 1.523438 -3.640625 1.796875 -3.765625 C 2.046875 -3.878906 2.320312 -3.9375 2.625 -3.9375 C 3.132812 -3.9375 3.582031 -3.769531 3.96875 -3.4375 C 4.351562 -3.113281 4.546875 -2.625 4.546875 -1.96875 C 4.546875 -1.414062 4.363281 -0.921875 4 -0.484375 C 3.632812 -0.0546875 3.117188 0.15625 2.453125 0.15625 C 1.867188 0.15625 1.367188 -0.0625 0.953125 -0.5 C 0.535156 -0.9375 0.328125 -1.671875 0.328125 -2.703125 C 0.328125 -3.460938 0.421875 -4.109375 0.609375 -4.640625 C 0.960938 -5.660156 1.617188 -6.171875 2.578125 -6.171875 Z M 2.515625 -0.53125 C 2.921875 -0.53125 3.222656 -0.664062 3.421875 -0.9375 C 3.628906 -1.207031 3.734375 -1.53125 3.734375 -1.90625 C 3.734375 -2.21875 3.640625 -2.515625 3.453125 -2.796875 C 3.273438 -3.085938 2.953125 -3.234375 2.484375 -3.234375 C 2.148438 -3.234375 1.859375 -3.125 1.609375 -2.90625 C 1.359375 -2.6875 1.234375 -2.351562 1.234375 -1.90625 C 1.234375 -1.519531 1.34375 -1.191406 1.5625 -0.921875 C 1.789062 -0.660156 2.109375 -0.53125 2.515625 -0.53125 Z M 2.515625 -0.53125 "/>
</g>
<g id="glyph-0-11">
<path d="M 4.59375 -6.046875 L 4.59375 -5.375 C 4.394531 -5.175781 4.128906 -4.835938 3.796875 -4.359375 C 3.472656 -3.890625 3.1875 -3.378906 2.9375 -2.828125 C 2.6875 -2.296875 2.5 -1.8125 2.375 -1.375 C 2.289062 -1.082031 2.179688 -0.625 2.046875 0 L 1.203125 0 C 1.390625 -1.175781 1.816406 -2.34375 2.484375 -3.5 C 2.878906 -4.1875 3.289062 -4.773438 3.71875 -5.265625 L 0.328125 -5.265625 L 0.328125 -6.046875 Z M 4.59375 -6.046875 "/>
</g>
<g id="glyph-0-12">
<path d="M 0.671875 -6.3125 L 1.671875 -6.3125 L 4.859375 -1.203125 L 4.859375 -6.3125 L 5.671875 -6.3125 L 5.671875 0 L 4.71875 0 L 1.484375 -5.109375 L 1.484375 0 L 0.671875 0 Z M 3.125 -6.3125 Z M 3.125 -6.3125 "/>
</g>
<g id="glyph-0-13">
<path d="M 1.15625 -1.21875 C 1.15625 -1 1.238281 -0.820312 1.40625 -0.6875 C 1.570312 -0.5625 1.765625 -0.5 1.984375 -0.5 C 2.253906 -0.5 2.519531 -0.5625 2.78125 -0.6875 C 3.207031 -0.894531 3.421875 -1.238281 3.421875 -1.71875 L 3.421875 -2.34375 C 3.328125 -2.28125 3.203125 -2.226562 3.046875 -2.1875 C 2.898438 -2.144531 2.753906 -2.117188 2.609375 -2.109375 L 2.140625 -2.046875 C 1.867188 -2.003906 1.660156 -1.945312 1.515625 -1.875 C 1.273438 -1.738281 1.15625 -1.519531 1.15625 -1.21875 Z M 3.03125 -2.78125 C 3.207031 -2.8125 3.328125 -2.890625 3.390625 -3.015625 C 3.421875 -3.078125 3.4375 -3.175781 3.4375 -3.3125 C 3.4375 -3.570312 3.34375 -3.757812 3.15625 -3.875 C 2.96875 -4 2.703125 -4.0625 2.359375 -4.0625 C 1.953125 -4.0625 1.664062 -3.953125 1.5 -3.734375 C 1.40625 -3.609375 1.34375 -3.429688 1.3125 -3.203125 L 0.59375 -3.203125 C 0.601562 -3.765625 0.785156 -4.15625 1.140625 -4.375 C 1.492188 -4.601562 1.90625 -4.71875 2.375 -4.71875 C 2.914062 -4.71875 3.351562 -4.613281 3.6875 -4.40625 C 4.019531 -4.195312 4.1875 -3.875 4.1875 -3.4375 L 4.1875 -0.796875 C 4.1875 -0.710938 4.203125 -0.644531 4.234375 -0.59375 C 4.273438 -0.550781 4.347656 -0.53125 4.453125 -0.53125 C 4.484375 -0.53125 4.519531 -0.53125 4.5625 -0.53125 C 4.601562 -0.53125 4.648438 -0.535156 4.703125 -0.546875 L 4.703125 0.015625 C 4.578125 0.0546875 4.484375 0.078125 4.421875 0.078125 C 4.359375 0.0859375 4.273438 0.09375 4.171875 0.09375 C 3.898438 0.09375 3.707031 0 3.59375 -0.1875 C 3.53125 -0.28125 3.484375 -0.421875 3.453125 -0.609375 C 3.296875 -0.398438 3.070312 -0.21875 2.78125 -0.0625 C 2.488281 0.0820312 2.160156 0.15625 1.796875 0.15625 C 1.367188 0.15625 1.019531 0.0234375 0.75 -0.234375 C 0.488281 -0.492188 0.359375 -0.816406 0.359375 -1.203125 C 0.359375 -1.628906 0.488281 -1.957031 0.75 -2.1875 C 1.019531 -2.425781 1.367188 -2.578125 1.796875 -2.640625 Z M 2.390625 -4.71875 Z M 2.390625 -4.71875 "/>
</g>
<g id="glyph-0-14">
<path d="M 0.5625 -4.578125 L 1.359375 -4.578125 L 1.359375 0 L 0.5625 0 Z M 0.5625 -6.3125 L 1.359375 -6.3125 L 1.359375 -5.4375 L 0.5625 -5.4375 Z M 0.5625 -6.3125 "/>
</g>
<g id="glyph-0-15">
<path d="M 0.9375 -4.59375 L 2.171875 -0.859375 L 3.453125 -4.59375 L 4.296875 -4.59375 L 2.5625 0 L 1.75 0 L 0.046875 -4.59375 Z M 0.9375 -4.59375 "/>
</g>
<g id="glyph-0-16">
<path d="M 2.484375 -4.703125 C 2.804688 -4.703125 3.117188 -4.625 3.421875 -4.46875 C 3.734375 -4.320312 3.96875 -4.125 4.125 -3.875 C 4.28125 -3.644531 4.382812 -3.375 4.4375 -3.0625 C 4.488281 -2.851562 4.515625 -2.515625 4.515625 -2.046875 L 1.140625 -2.046875 C 1.148438 -1.585938 1.257812 -1.210938 1.46875 -0.921875 C 1.675781 -0.640625 1.992188 -0.5 2.421875 -0.5 C 2.828125 -0.5 3.148438 -0.632812 3.390625 -0.90625 C 3.523438 -1.0625 3.625 -1.238281 3.6875 -1.4375 L 4.453125 -1.4375 C 4.429688 -1.269531 4.363281 -1.082031 4.25 -0.875 C 4.132812 -0.664062 4.003906 -0.5 3.859375 -0.375 C 3.628906 -0.144531 3.34375 0.0078125 3 0.09375 C 2.8125 0.132812 2.597656 0.15625 2.359375 0.15625 C 1.785156 0.15625 1.300781 -0.0507812 0.90625 -0.46875 C 0.507812 -0.882812 0.3125 -1.46875 0.3125 -2.21875 C 0.3125 -2.945312 0.507812 -3.539062 0.90625 -4 C 1.3125 -4.46875 1.835938 -4.703125 2.484375 -4.703125 Z M 3.71875 -2.671875 C 3.6875 -3.003906 3.613281 -3.269531 3.5 -3.46875 C 3.28125 -3.84375 2.925781 -4.03125 2.4375 -4.03125 C 2.082031 -4.03125 1.785156 -3.898438 1.546875 -3.640625 C 1.304688 -3.390625 1.175781 -3.066406 1.15625 -2.671875 Z M 2.40625 -4.71875 Z M 2.40625 -4.71875 "/>
</g>
<g id="glyph-0-17">
<path d="M 1.234375 -2.03125 C 1.253906 -1.675781 1.335938 -1.382812 1.484375 -1.15625 C 1.765625 -0.738281 2.265625 -0.53125 2.984375 -0.53125 C 3.304688 -0.53125 3.597656 -0.578125 3.859375 -0.671875 C 4.367188 -0.847656 4.625 -1.164062 4.625 -1.625 C 4.625 -1.96875 4.515625 -2.210938 4.296875 -2.359375 C 4.078125 -2.503906 3.738281 -2.628906 3.28125 -2.734375 L 2.421875 -2.921875 C 1.859375 -3.054688 1.460938 -3.195312 1.234375 -3.34375 C 0.835938 -3.601562 0.640625 -4 0.640625 -4.53125 C 0.640625 -5.09375 0.832031 -5.554688 1.21875 -5.921875 C 1.613281 -6.285156 2.171875 -6.46875 2.890625 -6.46875 C 3.554688 -6.46875 4.117188 -6.304688 4.578125 -5.984375 C 5.035156 -5.671875 5.265625 -5.160156 5.265625 -4.453125 L 4.46875 -4.453125 C 4.425781 -4.796875 4.332031 -5.054688 4.1875 -5.234375 C 3.925781 -5.566406 3.484375 -5.734375 2.859375 -5.734375 C 2.359375 -5.734375 2 -5.625 1.78125 -5.40625 C 1.5625 -5.195312 1.453125 -4.953125 1.453125 -4.671875 C 1.453125 -4.359375 1.578125 -4.132812 1.828125 -4 C 2.003906 -3.90625 2.390625 -3.789062 2.984375 -3.65625 L 3.859375 -3.453125 C 4.285156 -3.347656 4.617188 -3.210938 4.859375 -3.046875 C 5.253906 -2.753906 5.453125 -2.328125 5.453125 -1.765625 C 5.453125 -1.066406 5.195312 -0.566406 4.6875 -0.265625 C 4.1875 0.0351562 3.597656 0.1875 2.921875 0.1875 C 2.140625 0.1875 1.523438 -0.015625 1.078125 -0.421875 C 0.628906 -0.816406 0.410156 -1.351562 0.421875 -2.03125 Z M 2.953125 -6.484375 Z M 2.953125 -6.484375 "/>
</g>
<g id="glyph-0-18">
<path d="M 1.34375 -4.59375 L 1.34375 -1.546875 C 1.34375 -1.304688 1.378906 -1.113281 1.453125 -0.96875 C 1.585938 -0.695312 1.84375 -0.5625 2.21875 -0.5625 C 2.757812 -0.5625 3.125 -0.800781 3.3125 -1.28125 C 3.425781 -1.539062 3.484375 -1.894531 3.484375 -2.34375 L 3.484375 -4.59375 L 4.25 -4.59375 L 4.25 0 L 3.515625 0 L 3.53125 -0.671875 C 3.425781 -0.503906 3.300781 -0.359375 3.15625 -0.234375 C 2.863281 0.00390625 2.503906 0.125 2.078125 0.125 C 1.421875 0.125 0.976562 -0.09375 0.75 -0.53125 C 0.613281 -0.769531 0.546875 -1.082031 0.546875 -1.46875 L 0.546875 -4.59375 Z M 2.40625 -4.71875 Z M 2.40625 -4.71875 "/>
</g>
<g id="glyph-0-19">
<path d="M 0.59375 -4.59375 L 1.328125 -4.59375 L 1.328125 -3.8125 C 1.378906 -3.957031 1.523438 -4.140625 1.765625 -4.359375 C 2.003906 -4.585938 2.273438 -4.703125 2.578125 -4.703125 C 2.585938 -4.703125 2.609375 -4.695312 2.640625 -4.6875 C 2.679688 -4.6875 2.742188 -4.6875 2.828125 -4.6875 L 2.828125 -3.859375 C 2.773438 -3.867188 2.726562 -3.875 2.6875 -3.875 C 2.65625 -3.882812 2.617188 -3.890625 2.578125 -3.890625 C 2.179688 -3.890625 1.878906 -3.765625 1.671875 -3.515625 C 1.460938 -3.265625 1.359375 -2.972656 1.359375 -2.640625 L 1.359375 0 L 0.59375 0 Z M 0.59375 -4.59375 "/>
</g>
<g id="glyph-0-20">
<path d="M 3.4375 -4.59375 L 4.296875 -4.59375 C 4.179688 -4.300781 3.9375 -3.628906 3.5625 -2.578125 C 3.289062 -1.785156 3.054688 -1.144531 2.859375 -0.65625 C 2.410156 0.519531 2.09375 1.238281 1.90625 1.5 C 1.726562 1.757812 1.414062 1.890625 0.96875 1.890625 C 0.863281 1.890625 0.78125 1.882812 0.71875 1.875 C 0.664062 1.863281 0.59375 1.847656 0.5 1.828125 L 0.5 1.125 C 0.632812 1.15625 0.734375 1.175781 0.796875 1.1875 C 0.859375 1.195312 0.910156 1.203125 0.953125 1.203125 C 1.097656 1.203125 1.203125 1.175781 1.265625 1.125 C 1.335938 1.082031 1.394531 1.023438 1.4375 0.953125 C 1.457031 0.929688 1.507812 0.8125 1.59375 0.59375 C 1.6875 0.382812 1.753906 0.234375 1.796875 0.140625 L 0.09375 -4.59375 L 0.96875 -4.59375 L 2.203125 -0.859375 Z M 2.1875 -4.71875 Z M 2.1875 -4.71875 "/>
</g>
<g id="glyph-0-21">
<path d="M 0.359375 -2.84375 L 2.515625 -2.84375 L 2.515625 -2.046875 L 0.359375 -2.046875 Z M 0.359375 -2.84375 "/>
</g>
<g id="glyph-0-22">
<path d="M 0.921875 -4.59375 L 1.8125 -0.96875 L 2.703125 -4.59375 L 3.578125 -4.59375 L 4.46875 -1 L 5.421875 -4.59375 L 6.1875 -4.59375 L 4.859375 0 L 4.046875 0 L 3.109375 -3.5625 L 2.203125 0 L 1.40625 0 L 0.078125 -4.59375 Z M 0.921875 -4.59375 "/>
</g>
<g id="glyph-0-23">
<path d="M 2.1875 -4.6875 C 2.550781 -4.6875 2.867188 -4.597656 3.140625 -4.421875 C 3.285156 -4.316406 3.429688 -4.171875 3.578125 -3.984375 L 3.578125 -4.5625 L 4.296875 -4.5625 L 4.296875 -0.375 C 4.296875 0.207031 4.207031 0.671875 4.03125 1.015625 C 3.71875 1.640625 3.113281 1.953125 2.21875 1.953125 C 1.726562 1.953125 1.3125 1.835938 0.96875 1.609375 C 0.632812 1.390625 0.445312 1.046875 0.40625 0.578125 L 1.1875 0.578125 C 1.226562 0.773438 1.300781 0.929688 1.40625 1.046875 C 1.582031 1.222656 1.859375 1.3125 2.234375 1.3125 C 2.828125 1.3125 3.21875 1.097656 3.40625 0.671875 C 3.507812 0.429688 3.554688 -0.00390625 3.546875 -0.640625 C 3.390625 -0.398438 3.203125 -0.222656 2.984375 -0.109375 C 2.773438 0.00390625 2.488281 0.0625 2.125 0.0625 C 1.632812 0.0625 1.203125 -0.113281 0.828125 -0.46875 C 0.453125 -0.820312 0.265625 -1.410156 0.265625 -2.234375 C 0.265625 -3.003906 0.453125 -3.601562 0.828125 -4.03125 C 1.203125 -4.46875 1.65625 -4.6875 2.1875 -4.6875 Z M 3.578125 -2.3125 C 3.578125 -2.882812 3.457031 -3.304688 3.21875 -3.578125 C 2.988281 -3.859375 2.691406 -4 2.328125 -4 C 1.785156 -4 1.414062 -3.742188 1.21875 -3.234375 C 1.113281 -2.960938 1.0625 -2.609375 1.0625 -2.171875 C 1.0625 -1.648438 1.164062 -1.253906 1.375 -0.984375 C 1.582031 -0.710938 1.863281 -0.578125 2.21875 -0.578125 C 2.769531 -0.578125 3.160156 -0.828125 3.390625 -1.328125 C 3.515625 -1.609375 3.578125 -1.9375 3.578125 -2.3125 Z M 2.28125 -4.71875 Z M 2.28125 -4.71875 "/>
</g>
<g id="glyph-0-24">
<path d="M 0.5625 -6.328125 L 1.34375 -6.328125 L 1.34375 -3.984375 C 1.519531 -4.210938 1.679688 -4.375 1.828125 -4.46875 C 2.078125 -4.632812 2.390625 -4.71875 2.765625 -4.71875 C 3.429688 -4.71875 3.882812 -4.484375 4.125 -4.015625 C 4.25 -3.753906 4.3125 -3.398438 4.3125 -2.953125 L 4.3125 0 L 3.515625 0 L 3.515625 -2.90625 C 3.515625 -3.238281 3.472656 -3.484375 3.390625 -3.640625 C 3.253906 -3.890625 2.992188 -4.015625 2.609375 -4.015625 C 2.285156 -4.015625 1.992188 -3.90625 1.734375 -3.6875 C 1.472656 -3.46875 1.34375 -3.050781 1.34375 -2.4375 L 1.34375 0 L 0.5625 0 Z M 0.5625 -6.328125 "/>
</g>
<g id="glyph-0-25">
<path d="M 0.71875 -5.890625 L 1.5 -5.890625 L 1.5 -4.59375 L 2.234375 -4.59375 L 2.234375 -3.96875 L 1.5 -3.96875 L 1.5 -0.96875 C 1.5 -0.800781 1.554688 -0.691406 1.671875 -0.640625 C 1.722656 -0.609375 1.820312 -0.59375 1.96875 -0.59375 C 2 -0.59375 2.035156 -0.59375 2.078125 -0.59375 C 2.128906 -0.59375 2.179688 -0.597656 2.234375 -0.609375 L 2.234375 0 C 2.148438 0.0195312 2.054688 0.0351562 1.953125 0.046875 C 1.859375 0.0664062 1.757812 0.078125 1.65625 0.078125 C 1.289062 0.078125 1.039062 -0.015625 0.90625 -0.203125 C 0.78125 -0.390625 0.71875 -0.628906 0.71875 -0.921875 L 0.71875 -3.96875 L 0.09375 -3.96875 L 0.09375 -4.59375 L 0.71875 -4.59375 Z M 0.71875 -5.890625 "/>
</g>
<g id="glyph-0-26">
<path d="M 1.0625 -2.25 C 1.0625 -1.75 1.164062 -1.332031 1.375 -1 C 1.582031 -0.675781 1.914062 -0.515625 2.375 -0.515625 C 2.726562 -0.515625 3.019531 -0.664062 3.25 -0.96875 C 3.488281 -1.28125 3.609375 -1.722656 3.609375 -2.296875 C 3.609375 -2.878906 3.488281 -3.304688 3.25 -3.578125 C 3.007812 -3.859375 2.710938 -4 2.359375 -4 C 1.972656 -4 1.660156 -3.847656 1.421875 -3.546875 C 1.179688 -3.253906 1.0625 -2.820312 1.0625 -2.25 Z M 2.21875 -4.6875 C 2.570312 -4.6875 2.867188 -4.609375 3.109375 -4.453125 C 3.242188 -4.367188 3.398438 -4.21875 3.578125 -4 L 3.578125 -6.328125 L 4.3125 -6.328125 L 4.3125 0 L 3.625 0 L 3.625 -0.640625 C 3.4375 -0.359375 3.21875 -0.15625 2.96875 -0.03125 C 2.726562 0.09375 2.453125 0.15625 2.140625 0.15625 C 1.617188 0.15625 1.171875 -0.0546875 0.796875 -0.484375 C 0.421875 -0.910156 0.234375 -1.484375 0.234375 -2.203125 C 0.234375 -2.867188 0.40625 -3.445312 0.75 -3.9375 C 1.09375 -4.4375 1.582031 -4.6875 2.21875 -4.6875 Z M 2.21875 -4.6875 "/>
</g>
<g id="glyph-1-0">
<path d="M 0.359375 0 L 0.359375 -7.890625 L 6.625 -7.890625 L 6.625 0 Z M 5.625 -0.984375 L 5.625 -6.90625 L 1.34375 -6.90625 L 1.34375 -0.984375 Z M 5.625 -0.984375 "/>
</g>
<g id="glyph-1-1">
<path d="M 0.9375 -7.890625 L 6.6875 -7.890625 L 6.6875 -6.921875 L 1.984375 -6.921875 L 1.984375 -4.53125 L 6.34375 -4.53125 L 6.34375 -3.609375 L 1.984375 -3.609375 L 1.984375 -0.9375 L 6.765625 -0.9375 L 6.765625 0 L 0.9375 0 Z M 3.859375 -7.890625 Z M 3.859375 -7.890625 "/>
</g>
<g id="glyph-1-2">
<path d="M 1.28125 -1.8125 C 1.3125 -1.488281 1.394531 -1.238281 1.53125 -1.0625 C 1.769531 -0.75 2.191406 -0.59375 2.796875 -0.59375 C 3.148438 -0.59375 3.460938 -0.671875 3.734375 -0.828125 C 4.003906 -0.984375 4.140625 -1.222656 4.140625 -1.546875 C 4.140625 -1.796875 4.03125 -1.984375 3.8125 -2.109375 C 3.675781 -2.191406 3.398438 -2.285156 2.984375 -2.390625 L 2.21875 -2.578125 C 1.726562 -2.703125 1.367188 -2.835938 1.140625 -2.984375 C 0.722656 -3.253906 0.515625 -3.617188 0.515625 -4.078125 C 0.515625 -4.617188 0.707031 -5.054688 1.09375 -5.390625 C 1.488281 -5.734375 2.019531 -5.90625 2.6875 -5.90625 C 3.550781 -5.90625 4.175781 -5.648438 4.5625 -5.140625 C 4.800781 -4.816406 4.914062 -4.46875 4.90625 -4.09375 L 4 -4.09375 C 3.976562 -4.3125 3.898438 -4.507812 3.765625 -4.6875 C 3.546875 -4.945312 3.160156 -5.078125 2.609375 -5.078125 C 2.242188 -5.078125 1.96875 -5.003906 1.78125 -4.859375 C 1.59375 -4.722656 1.5 -4.539062 1.5 -4.3125 C 1.5 -4.0625 1.625 -3.863281 1.875 -3.71875 C 2.007812 -3.625 2.21875 -3.539062 2.5 -3.46875 L 3.140625 -3.3125 C 3.835938 -3.144531 4.300781 -2.984375 4.53125 -2.828125 C 4.914062 -2.578125 5.109375 -2.191406 5.109375 -1.671875 C 5.109375 -1.148438 4.910156 -0.703125 4.515625 -0.328125 C 4.128906 0.0351562 3.539062 0.21875 2.75 0.21875 C 1.894531 0.21875 1.285156 0.0234375 0.921875 -0.359375 C 0.566406 -0.753906 0.378906 -1.238281 0.359375 -1.8125 Z M 2.71875 -5.890625 Z M 2.71875 -5.890625 "/>
</g>
<g id="glyph-1-3">
<path d="M 0.90625 -7.359375 L 1.875 -7.359375 L 1.875 -5.75 L 2.796875 -5.75 L 2.796875 -4.96875 L 1.875 -4.96875 L 1.875 -1.203125 C 1.875 -1.003906 1.941406 -0.875 2.078125 -0.8125 C 2.160156 -0.769531 2.285156 -0.75 2.453125 -0.75 C 2.503906 -0.75 2.554688 -0.75 2.609375 -0.75 C 2.660156 -0.75 2.722656 -0.753906 2.796875 -0.765625 L 2.796875 0 C 2.679688 0.03125 2.5625 0.0507812 2.4375 0.0625 C 2.320312 0.0820312 2.195312 0.09375 2.0625 0.09375 C 1.613281 0.09375 1.304688 -0.0195312 1.140625 -0.25 C 0.984375 -0.488281 0.90625 -0.789062 0.90625 -1.15625 L 0.90625 -4.96875 L 0.125 -4.96875 L 0.125 -5.75 L 0.90625 -5.75 Z M 0.90625 -7.359375 "/>
</g>
<g id="glyph-1-4">
<path d="M 0.703125 -5.71875 L 1.6875 -5.71875 L 1.6875 0 L 0.703125 0 Z M 0.703125 -7.890625 L 1.6875 -7.890625 L 1.6875 -6.796875 L 0.703125 -6.796875 Z M 0.703125 -7.890625 "/>
</g>
<g id="glyph-1-5">
<path d="M 0.703125 -5.75 L 1.671875 -5.75 L 1.671875 -4.9375 C 1.898438 -5.21875 2.101562 -5.421875 2.28125 -5.546875 C 2.601562 -5.765625 2.96875 -5.875 3.375 -5.875 C 3.832031 -5.875 4.203125 -5.765625 4.484375 -5.546875 C 4.640625 -5.410156 4.78125 -5.21875 4.90625 -4.96875 C 5.125 -5.28125 5.378906 -5.507812 5.671875 -5.65625 C 5.960938 -5.800781 6.285156 -5.875 6.640625 -5.875 C 7.410156 -5.875 7.9375 -5.597656 8.21875 -5.046875 C 8.375 -4.742188 8.453125 -4.335938 8.453125 -3.828125 L 8.453125 0 L 7.4375 0 L 7.4375 -4 C 7.4375 -4.382812 7.34375 -4.644531 7.15625 -4.78125 C 6.96875 -4.925781 6.734375 -5 6.453125 -5 C 6.078125 -5 5.75 -4.867188 5.46875 -4.609375 C 5.195312 -4.359375 5.0625 -3.9375 5.0625 -3.34375 L 5.0625 0 L 4.078125 0 L 4.078125 -3.75 C 4.078125 -4.144531 4.03125 -4.429688 3.9375 -4.609375 C 3.789062 -4.878906 3.519531 -5.015625 3.125 -5.015625 C 2.757812 -5.015625 2.425781 -4.867188 2.125 -4.578125 C 1.820312 -4.296875 1.671875 -3.785156 1.671875 -3.046875 L 1.671875 0 L 0.703125 0 Z M 0.703125 -5.75 "/>
</g>
<g id="glyph-1-6">
<path d="M 1.453125 -1.53125 C 1.453125 -1.25 1.550781 -1.023438 1.75 -0.859375 C 1.957031 -0.703125 2.203125 -0.625 2.484375 -0.625 C 2.816406 -0.625 3.144531 -0.703125 3.46875 -0.859375 C 4.007812 -1.117188 4.28125 -1.550781 4.28125 -2.15625 L 4.28125 -2.921875 C 4.15625 -2.847656 4 -2.785156 3.8125 -2.734375 C 3.632812 -2.691406 3.453125 -2.65625 3.265625 -2.625 L 2.6875 -2.5625 C 2.332031 -2.507812 2.066406 -2.4375 1.890625 -2.34375 C 1.597656 -2.164062 1.453125 -1.894531 1.453125 -1.53125 Z M 3.796875 -3.484375 C 4.015625 -3.515625 4.160156 -3.609375 4.234375 -3.765625 C 4.273438 -3.847656 4.296875 -3.972656 4.296875 -4.140625 C 4.296875 -4.460938 4.175781 -4.695312 3.9375 -4.84375 C 3.707031 -5 3.375 -5.078125 2.9375 -5.078125 C 2.4375 -5.078125 2.082031 -4.941406 1.875 -4.671875 C 1.75 -4.515625 1.671875 -4.289062 1.640625 -4 L 0.734375 -4 C 0.753906 -4.707031 0.984375 -5.195312 1.421875 -5.46875 C 1.867188 -5.75 2.382812 -5.890625 2.96875 -5.890625 C 3.644531 -5.890625 4.191406 -5.757812 4.609375 -5.5 C 5.035156 -5.25 5.25 -4.847656 5.25 -4.296875 L 5.25 -0.984375 C 5.25 -0.890625 5.265625 -0.8125 5.296875 -0.75 C 5.335938 -0.6875 5.425781 -0.65625 5.5625 -0.65625 C 5.601562 -0.65625 5.648438 -0.65625 5.703125 -0.65625 C 5.765625 -0.664062 5.820312 -0.675781 5.875 -0.6875 L 5.875 0.03125 C 5.726562 0.0703125 5.613281 0.0976562 5.53125 0.109375 C 5.457031 0.117188 5.351562 0.125 5.21875 0.125 C 4.882812 0.125 4.640625 0.00390625 4.484375 -0.234375 C 4.410156 -0.359375 4.359375 -0.535156 4.328125 -0.765625 C 4.128906 -0.503906 3.84375 -0.28125 3.46875 -0.09375 C 3.101562 0.0898438 2.695312 0.1875 2.25 0.1875 C 1.71875 0.1875 1.28125 0.0234375 0.9375 -0.296875 C 0.601562 -0.617188 0.4375 -1.023438 0.4375 -1.515625 C 0.4375 -2.046875 0.601562 -2.457031 0.9375 -2.75 C 1.269531 -3.039062 1.707031 -3.222656 2.25 -3.296875 Z M 2.984375 -5.890625 Z M 2.984375 -5.890625 "/>
</g>
<g id="glyph-1-7">
<path d="M 3.109375 -5.875 C 3.515625 -5.875 3.90625 -5.78125 4.28125 -5.59375 C 4.664062 -5.40625 4.960938 -5.15625 5.171875 -4.84375 C 5.359375 -4.5625 5.484375 -4.222656 5.546875 -3.828125 C 5.609375 -3.566406 5.640625 -3.144531 5.640625 -2.5625 L 1.421875 -2.5625 C 1.441406 -1.976562 1.578125 -1.507812 1.828125 -1.15625 C 2.085938 -0.8125 2.488281 -0.640625 3.03125 -0.640625 C 3.539062 -0.640625 3.945312 -0.804688 4.25 -1.140625 C 4.414062 -1.328125 4.535156 -1.550781 4.609375 -1.8125 L 5.5625 -1.8125 C 5.53125 -1.59375 5.441406 -1.351562 5.296875 -1.09375 C 5.160156 -0.832031 5.003906 -0.625 4.828125 -0.46875 C 4.535156 -0.175781 4.175781 0.0195312 3.75 0.125 C 3.507812 0.175781 3.242188 0.203125 2.953125 0.203125 C 2.234375 0.203125 1.625 -0.0546875 1.125 -0.578125 C 0.632812 -1.097656 0.390625 -1.828125 0.390625 -2.765625 C 0.390625 -3.691406 0.640625 -4.441406 1.140625 -5.015625 C 1.640625 -5.585938 2.296875 -5.875 3.109375 -5.875 Z M 4.640625 -3.328125 C 4.609375 -3.753906 4.519531 -4.09375 4.375 -4.34375 C 4.101562 -4.800781 3.660156 -5.03125 3.046875 -5.03125 C 2.597656 -5.03125 2.222656 -4.867188 1.921875 -4.546875 C 1.628906 -4.234375 1.472656 -3.828125 1.453125 -3.328125 Z M 3.015625 -5.890625 Z M 3.015625 -5.890625 "/>
</g>
<g id="glyph-1-8">
<path d="M 1.328125 -2.8125 C 1.328125 -2.195312 1.457031 -1.679688 1.71875 -1.265625 C 1.976562 -0.847656 2.394531 -0.640625 2.96875 -0.640625 C 3.414062 -0.640625 3.78125 -0.832031 4.0625 -1.21875 C 4.351562 -1.601562 4.5 -2.15625 4.5 -2.875 C 4.5 -3.601562 4.347656 -4.140625 4.046875 -4.484375 C 3.753906 -4.835938 3.390625 -5.015625 2.953125 -5.015625 C 2.472656 -5.015625 2.082031 -4.828125 1.78125 -4.453125 C 1.476562 -4.078125 1.328125 -3.53125 1.328125 -2.8125 Z M 2.78125 -5.859375 C 3.21875 -5.859375 3.585938 -5.765625 3.890625 -5.578125 C 4.054688 -5.472656 4.25 -5.285156 4.46875 -5.015625 L 4.46875 -7.921875 L 5.390625 -7.921875 L 5.390625 0 L 4.53125 0 L 4.53125 -0.796875 C 4.300781 -0.441406 4.03125 -0.1875 3.71875 -0.03125 C 3.414062 0.121094 3.066406 0.203125 2.671875 0.203125 C 2.023438 0.203125 1.46875 -0.0625 1 -0.59375 C 0.53125 -1.132812 0.296875 -1.851562 0.296875 -2.75 C 0.296875 -3.59375 0.507812 -4.320312 0.9375 -4.9375 C 1.363281 -5.550781 1.976562 -5.859375 2.78125 -5.859375 Z M 2.78125 -5.859375 "/>
</g>
<g id="glyph-1-9">
</g>
<g id="glyph-1-10">
<path d="M 0.703125 -5.75 L 1.625 -5.75 L 1.625 -4.9375 C 1.894531 -5.269531 2.179688 -5.507812 2.484375 -5.65625 C 2.796875 -5.800781 3.132812 -5.875 3.5 -5.875 C 4.320312 -5.875 4.875 -5.59375 5.15625 -5.03125 C 5.3125 -4.71875 5.390625 -4.269531 5.390625 -3.6875 L 5.390625 0 L 4.421875 0 L 4.421875 -3.625 C 4.421875 -3.976562 4.367188 -4.257812 4.265625 -4.46875 C 4.085938 -4.832031 3.773438 -5.015625 3.328125 -5.015625 C 3.097656 -5.015625 2.910156 -4.988281 2.765625 -4.9375 C 2.492188 -4.863281 2.257812 -4.707031 2.0625 -4.46875 C 1.90625 -4.28125 1.800781 -4.082031 1.75 -3.875 C 1.695312 -3.675781 1.671875 -3.390625 1.671875 -3.015625 L 1.671875 0 L 0.703125 0 Z M 2.984375 -5.890625 Z M 2.984375 -5.890625 "/>
</g>
<g id="glyph-1-11">
<path d="M 2.921875 -5.921875 C 3.578125 -5.921875 4.109375 -5.757812 4.515625 -5.4375 C 4.921875 -5.125 5.164062 -4.582031 5.25 -3.8125 L 4.296875 -3.8125 C 4.242188 -4.164062 4.113281 -4.457031 3.90625 -4.6875 C 3.707031 -4.925781 3.378906 -5.046875 2.921875 -5.046875 C 2.304688 -5.046875 1.867188 -4.75 1.609375 -4.15625 C 1.429688 -3.757812 1.34375 -3.273438 1.34375 -2.703125 C 1.34375 -2.128906 1.460938 -1.644531 1.703125 -1.25 C 1.953125 -0.851562 2.335938 -0.65625 2.859375 -0.65625 C 3.265625 -0.65625 3.582031 -0.773438 3.8125 -1.015625 C 4.050781 -1.265625 4.210938 -1.601562 4.296875 -2.03125 L 5.25 -2.03125 C 5.132812 -1.269531 4.863281 -0.710938 4.4375 -0.359375 C 4.007812 -0.00390625 3.457031 0.171875 2.78125 0.171875 C 2.03125 0.171875 1.429688 -0.101562 0.984375 -0.65625 C 0.535156 -1.207031 0.3125 -1.894531 0.3125 -2.71875 C 0.3125 -3.726562 0.554688 -4.515625 1.046875 -5.078125 C 1.535156 -5.640625 2.160156 -5.921875 2.921875 -5.921875 Z M 2.78125 -5.890625 Z M 2.78125 -5.890625 "/>
</g>
<g id="glyph-1-12">
<path d="M 2.984375 -0.625 C 3.628906 -0.625 4.070312 -0.863281 4.3125 -1.34375 C 4.550781 -1.832031 4.671875 -2.375 4.671875 -2.96875 C 4.671875 -3.507812 4.582031 -3.945312 4.40625 -4.28125 C 4.132812 -4.8125 3.664062 -5.078125 3 -5.078125 C 2.40625 -5.078125 1.972656 -4.847656 1.703125 -4.390625 C 1.441406 -3.941406 1.3125 -3.398438 1.3125 -2.765625 C 1.3125 -2.148438 1.441406 -1.640625 1.703125 -1.234375 C 1.972656 -0.828125 2.398438 -0.625 2.984375 -0.625 Z M 3.03125 -5.921875 C 3.769531 -5.921875 4.394531 -5.671875 4.90625 -5.171875 C 5.414062 -4.679688 5.671875 -3.957031 5.671875 -3 C 5.671875 -2.070312 5.445312 -1.304688 5 -0.703125 C 4.550781 -0.0976562 3.851562 0.203125 2.90625 0.203125 C 2.113281 0.203125 1.484375 -0.0625 1.015625 -0.59375 C 0.546875 -1.125 0.3125 -1.84375 0.3125 -2.75 C 0.3125 -3.71875 0.554688 -4.488281 1.046875 -5.0625 C 1.535156 -5.632812 2.195312 -5.921875 3.03125 -5.921875 Z M 3 -5.890625 Z M 3 -5.890625 "/>
</g>
<g id="glyph-2-0">
<path d="M 0 -0.359375 L -7.890625 -0.359375 L -7.890625 -6.625 L 0 -6.625 Z M -0.984375 -5.625 L -6.90625 -5.625 L -6.90625 -1.34375 L -0.984375 -1.34375 Z M -0.984375 -5.625 "/>
</g>
<g id="glyph-2-1">
<path d="M -8.109375 -4.15625 C -8.109375 -5.15625 -7.84375 -5.929688 -7.3125 -6.484375 C -6.789062 -7.035156 -6.191406 -7.34375 -5.515625 -7.40625 L -5.515625 -6.359375 C -6.023438 -6.242188 -6.425781 -6.007812 -6.71875 -5.65625 C -7.019531 -5.300781 -7.171875 -4.804688 -7.171875 -4.171875 C -7.171875 -3.398438 -6.894531 -2.773438 -6.34375 -2.296875 C -5.800781 -1.816406 -4.96875 -1.578125 -3.84375 -1.578125 C -2.914062 -1.578125 -2.164062 -1.789062 -1.59375 -2.21875 C -1.019531 -2.65625 -0.734375 -3.300781 -0.734375 -4.15625 C -0.734375 -4.9375 -1.035156 -5.535156 -1.640625 -5.953125 C -1.960938 -6.171875 -2.382812 -6.332031 -2.90625 -6.4375 L -2.90625 -7.484375 C -2.070312 -7.390625 -1.375 -7.082031 -0.8125 -6.5625 C -0.132812 -5.9375 0.203125 -5.085938 0.203125 -4.015625 C 0.203125 -3.097656 -0.0703125 -2.332031 -0.625 -1.71875 C -1.363281 -0.894531 -2.5 -0.484375 -4.03125 -0.484375 C -5.195312 -0.484375 -6.148438 -0.789062 -6.890625 -1.40625 C -7.703125 -2.070312 -8.109375 -2.988281 -8.109375 -4.15625 Z M -8.109375 -3.953125 Z M -8.109375 -3.953125 "/>
</g>
<g id="glyph-2-2">
<path d="M -0.625 -2.984375 C -0.625 -3.628906 -0.863281 -4.070312 -1.34375 -4.3125 C -1.832031 -4.550781 -2.375 -4.671875 -2.96875 -4.671875 C -3.507812 -4.671875 -3.945312 -4.582031 -4.28125 -4.40625 C -4.8125 -4.132812 -5.078125 -3.664062 -5.078125 -3 C -5.078125 -2.40625 -4.847656 -1.972656 -4.390625 -1.703125 C -3.941406 -1.441406 -3.398438 -1.3125 -2.765625 -1.3125 C -2.148438 -1.3125 -1.640625 -1.441406 -1.234375 -1.703125 C -0.828125 -1.972656 -0.625 -2.398438 -0.625 -2.984375 Z M -5.921875 -3.03125 C -5.921875 -3.769531 -5.671875 -4.394531 -5.171875 -4.90625 C -4.679688 -5.414062 -3.957031 -5.671875 -3 -5.671875 C -2.070312 -5.671875 -1.304688 -5.445312 -0.703125 -5 C -0.0976562 -4.550781 0.203125 -3.851562 0.203125 -2.90625 C 0.203125 -2.113281 -0.0625 -1.484375 -0.59375 -1.015625 C -1.125 -0.546875 -1.84375 -0.3125 -2.75 -0.3125 C -3.71875 -0.3125 -4.488281 -0.554688 -5.0625 -1.046875 C -5.632812 -1.535156 -5.921875 -2.195312 -5.921875 -3.03125 Z M -5.890625 -3 Z M -5.890625 -3 "/>
</g>
<g id="glyph-2-3">
<path d="M -5.75 -1.671875 L -1.9375 -1.671875 C -1.644531 -1.671875 -1.40625 -1.71875 -1.21875 -1.8125 C -0.875 -1.988281 -0.703125 -2.3125 -0.703125 -2.78125 C -0.703125 -3.445312 -1 -3.90625 -1.59375 -4.15625 C -1.914062 -4.28125 -2.359375 -4.34375 -2.921875 -4.34375 L -5.75 -4.34375 L -5.75 -5.3125 L 0 -5.3125 L 0 -4.40625 L -0.84375 -4.421875 C -0.625 -4.296875 -0.441406 -4.140625 -0.296875 -3.953125 C 0.00390625 -3.578125 0.15625 -3.128906 0.15625 -2.609375 C 0.15625 -1.785156 -0.117188 -1.222656 -0.671875 -0.921875 C -0.960938 -0.765625 -1.351562 -0.6875 -1.84375 -0.6875 L -5.75 -0.6875 Z M -5.890625 -3 Z M -5.890625 -3 "/>
</g>
<g id="glyph-2-4">
<path d="M -5.75 -0.703125 L -5.75 -1.625 L -4.9375 -1.625 C -5.269531 -1.894531 -5.507812 -2.179688 -5.65625 -2.484375 C -5.800781 -2.796875 -5.875 -3.132812 -5.875 -3.5 C -5.875 -4.320312 -5.59375 -4.875 -5.03125 -5.15625 C -4.71875 -5.3125 -4.269531 -5.390625 -3.6875 -5.390625 L 0 -5.390625 L 0 -4.421875 L -3.625 -4.421875 C -3.976562 -4.421875 -4.257812 -4.367188 -4.46875 -4.265625 C -4.832031 -4.085938 -5.015625 -3.773438 -5.015625 -3.328125 C -5.015625 -3.097656 -4.988281 -2.910156 -4.9375 -2.765625 C -4.863281 -2.492188 -4.707031 -2.257812 -4.46875 -2.0625 C -4.28125 -1.90625 -4.082031 -1.800781 -3.875 -1.75 C -3.675781 -1.695312 -3.390625 -1.671875 -3.015625 -1.671875 L 0 -1.671875 L 0 -0.703125 Z M -5.890625 -2.984375 Z M -5.890625 -2.984375 "/>
</g>
<g id="glyph-2-5">
<path d="M -7.359375 -0.90625 L -7.359375 -1.875 L -5.75 -1.875 L -5.75 -2.796875 L -4.96875 -2.796875 L -4.96875 -1.875 L -1.203125 -1.875 C -1.003906 -1.875 -0.875 -1.941406 -0.8125 -2.078125 C -0.769531 -2.160156 -0.75 -2.285156 -0.75 -2.453125 C -0.75 -2.503906 -0.75 -2.554688 -0.75 -2.609375 C -0.75 -2.660156 -0.753906 -2.722656 -0.765625 -2.796875 L 0 -2.796875 C 0.03125 -2.679688 0.0507812 -2.5625 0.0625 -2.4375 C 0.0820312 -2.320312 0.09375 -2.195312 0.09375 -2.0625 C 0.09375 -1.613281 -0.0195312 -1.304688 -0.25 -1.140625 C -0.488281 -0.984375 -0.789062 -0.90625 -1.15625 -0.90625 L -4.96875 -0.90625 L -4.96875 -0.125 L -5.75 -0.125 L -5.75 -0.90625 Z M -7.359375 -0.90625 "/>
</g>
</g>
<clipPath id="clip-0">
<path clip-rule="nonzero" d="M 39.152344 44.675781 L 498.523438 44.675781 L 498.523438 326.847656 L 39.152344 326.847656 Z M 39.152344 44.675781 "/>
</clipPath>
<clipPath id="clip-1">
<path clip-rule="nonzero" d="M 39.152344 272 L 498.523438 272 L 498.523438 274 L 39.152344 274 Z M 39.152344 272 "/>
</clipPath>
<clipPath id="clip-2">
<path clip-rule="nonzero" d="M 39.152344 190 L 498.523438 190 L 498.523438 192 L 39.152344 192 Z M 39.152344 190 "/>
</clipPath>
<clipPath id="clip-3">
<path clip-rule="nonzero" d="M 39.152344 108 L 498.523438 108 L 498.523438 110 L 39.152344 110 Z M 39.152344 108 "/>
</clipPath>
<clipPath id="clip-4">
<path clip-rule="nonzero" d="M 40 44.675781 L 42 44.675781 L 42 326.847656 L 40 326.847656 Z M 40 44.675781 "/>
</clipPath>
<clipPath id="clip-5">
<path clip-rule="nonzero" d="M 125 44.675781 L 126 44.675781 L 126 326.847656 L 125 326.847656 Z M 125 44.675781 "/>
</clipPath>
<clipPath id="clip-6">
<path clip-rule="nonzero" d="M 209 44.675781 L 211 44.675781 L 211 326.847656 L 209 326.847656 Z M 209 44.675781 "/>
</clipPath>
<clipPath id="clip-7">
<path clip-rule="nonzero" d="M 294 44.675781 L 295 44.675781 L 295 326.847656 L 294 326.847656 Z M 294 44.675781 "/>
</clipPath>
<clipPath id="clip-8">
<path clip-rule="nonzero" d="M 378 44.675781 L 380 44.675781 L 380 326.847656 L 378 326.847656 Z M 378 44.675781 "/>
</clipPath>
<clipPath id="clip-9">
<path clip-rule="nonzero" d="M 463 44.675781 L 464 44.675781 L 464 326.847656 L 463 326.847656 Z M 463 44.675781 "/>
</clipPath>
<clipPath id="clip-10">
<path clip-rule="nonzero" d="M 39.152344 313 L 498.523438 313 L 498.523438 315 L 39.152344 315 Z M 39.152344 313 "/>
</clipPath>
<clipPath id="clip-11">
<path clip-rule="nonzero" d="M 39.152344 231 L 498.523438 231 L 498.523438 233 L 39.152344 233 Z M 39.152344 231 "/>
</clipPath>
<clipPath id="clip-12">
<path clip-rule="nonzero" d="M 39.152344 149 L 498.523438 149 L 498.523438 151 L 39.152344 151 Z M 39.152344 149 "/>
</clipPath>
<clipPath id="clip-13">
<path clip-rule="nonzero" d="M 39.152344 67 L 498.523438 67 L 498.523438 69 L 39.152344 69 Z M 39.152344 67 "/>
</clipPath>
<clipPath id="clip-14">
<path clip-rule="nonzero" d="M 82 44.675781 L 85 44.675781 L 85 326.847656 L 82 326.847656 Z M 82 44.675781 "/>
</clipPath>
<clipPath id="clip-15">
<path clip-rule="nonzero" d="M 167 44.675781 L 169 44.675781 L 169 326.847656 L 167 326.847656 Z M 167 44.675781 "/>
</clipPath>
<clipPath id="clip-16">
<path clip-rule="nonzero" d="M 251 44.675781 L 253 44.675781 L 253 326.847656 L 251 326.847656 Z M 251 44.675781 "/>
</clipPath>
<clipPath id="clip-17">
<path clip-rule="nonzero" d="M 336 44.675781 L 338 44.675781 L 338 326.847656 L 336 326.847656 Z M 336 44.675781 "/>
</clipPath>
<clipPath id="clip-18">
<path clip-rule="nonzero" d="M 420 44.675781 L 422 44.675781 L 422 326.847656 L 420 326.847656 Z M 420 44.675781 "/>
</clipPath>
<clipPath id="clip-19">
<path clip-rule="nonzero" d="M 362 44.675781 L 365 44.675781 L 365 326.847656 L 362 326.847656 Z M 362 44.675781 "/>
</clipPath>
</defs>
<rect x="-50.4" y="-36" width="604.8" height="432" fill="rgb(100%, 100%, 100%)" fill-opacity="1"/>
<rect x="-50.4" y="-36" width="604.8" height="432" fill="rgb(100%, 100%, 100%)" fill-opacity="1"/>
<path fill="none" stroke-width="1.066978" stroke-linecap="round" stroke-linejoin="round" stroke="rgb(100%, 100%, 100%)" stroke-opacity="1" stroke-miterlimit="10" d="M 0 360 L 504 360 L 504 0 L 0 0 Z M 0 360 "/>
<g clip-path="url(#clip-0)">
<path fill-rule="nonzero" fill="rgb(92.156863%, 92.156863%, 92.156863%)" fill-opacity="1" d="M 39.152344 326.847656 L 498.523438 326.847656 L 498.523438 44.675781 L 39.152344 44.675781 Z M 39.152344 326.847656 "/>
</g>
<g clip-path="url(#clip-1)">
<path fill="none" stroke-width="0.533489" stroke-linecap="butt" stroke-linejoin="round" stroke="rgb(100%, 100%, 100%)" stroke-opacity="1" stroke-miterlimit="10" d="M 39.152344 272.980469 L 498.519531 272.980469 "/>
</g>
<g clip-path="url(#clip-2)">
<path fill="none" stroke-width="0.533489" stroke-linecap="butt" stroke-linejoin="round" stroke="rgb(100%, 100%, 100%)" stroke-opacity="1" stroke-miterlimit="10" d="M 39.152344 190.894531 L 498.519531 190.894531 "/>
</g>
<g clip-path="url(#clip-3)">
<path fill="none" stroke-width="0.533489" stroke-linecap="butt" stroke-linejoin="round" stroke="rgb(100%, 100%, 100%)" stroke-opacity="1" stroke-miterlimit="10" d="M 39.152344 108.808594 L 498.519531 108.808594 "/>
</g>
<g clip-path="url(#clip-4)">
<path fill="none" stroke-width="0.533489" stroke-linecap="butt" stroke-linejoin="round" stroke="rgb(100%, 100%, 100%)" stroke-opacity="1" stroke-miterlimit="10" d="M 41.246094 326.847656 L 41.246094 44.675781 "/>
</g>
<g clip-path="url(#clip-5)">
<path fill="none" stroke-width="0.533489" stroke-linecap="butt" stroke-linejoin="round" stroke="rgb(100%, 100%, 100%)" stroke-opacity="1" stroke-miterlimit="10" d="M 125.722656 326.847656 L 125.722656 44.675781 "/>
</g>
<g clip-path="url(#clip-6)">
<path fill="none" stroke-width="0.533489" stroke-linecap="butt" stroke-linejoin="round" stroke="rgb(100%, 100%, 100%)" stroke-opacity="1" stroke-miterlimit="10" d="M 210.199219 326.847656 L 210.199219 44.675781 "/>
</g>
<g clip-path="url(#clip-7)">
<path fill="none" stroke-width="0.533489" stroke-linecap="butt" stroke-linejoin="round" stroke="rgb(100%, 100%, 100%)" stroke-opacity="1" stroke-miterlimit="10" d="M 294.675781 326.847656 L 294.675781 44.675781 "/>
</g>
<g clip-path="url(#clip-8)">
<path fill="none" stroke-width="0.533489" stroke-linecap="butt" stroke-linejoin="round" stroke="rgb(100%, 100%, 100%)" stroke-opacity="1" stroke-miterlimit="10" d="M 379.152344 326.847656 L 379.152344 44.675781 "/>
</g>
<g clip-path="url(#clip-9)">
<path fill="none" stroke-width="0.533489" stroke-linecap="butt" stroke-linejoin="round" stroke="rgb(100%, 100%, 100%)" stroke-opacity="1" stroke-miterlimit="10" d="M 463.628906 326.847656 L 463.628906 44.675781 "/>
</g>
<g clip-path="url(#clip-10)">
<path fill="none" stroke-width="1.066978" stroke-linecap="butt" stroke-linejoin="round" stroke="rgb(100%, 100%, 100%)" stroke-opacity="1" stroke-miterlimit="10" d="M 39.152344 314.023438 L 498.519531 314.023438 "/>
</g>
<g clip-path="url(#clip-11)">
<path fill="none" stroke-width="1.066978" stroke-linecap="butt" stroke-linejoin="round" stroke="rgb(100%, 100%, 100%)" stroke-opacity="1" stroke-miterlimit="10" d="M 39.152344 231.9375 L 498.519531 231.9375 "/>
</g>
<g clip-path="url(#clip-12)">
<path fill="none" stroke-width="1.066978" stroke-linecap="butt" stroke-linejoin="round" stroke="rgb(100%, 100%, 100%)" stroke-opacity="1" stroke-miterlimit="10" d="M 39.152344 149.851562 L 498.519531 149.851562 "/>
</g>
<g clip-path="url(#clip-13)">
<path fill="none" stroke-width="1.066978" stroke-linecap="butt" stroke-linejoin="round" stroke="rgb(100%, 100%, 100%)" stroke-opacity="1" stroke-miterlimit="10" d="M 39.152344 67.765625 L 498.519531 67.765625 "/>
</g>
<g clip-path="url(#clip-14)">
<path fill="none" stroke-width="1.066978" stroke-linecap="butt" stroke-linejoin="round" stroke="rgb(100%, 100%, 100%)" stroke-opacity="1" stroke-miterlimit="10" d="M 83.484375 326.847656 L 83.484375 44.675781 "/>
</g>
<g clip-path="url(#clip-15)">
<path fill="none" stroke-width="1.066978" stroke-linecap="butt" stroke-linejoin="round" stroke="rgb(100%, 100%, 100%)" stroke-opacity="1" stroke-miterlimit="10" d="M 167.960938 326.847656 L 167.960938 44.675781 "/>
</g>
<g clip-path="url(#clip-16)">
<path fill="none" stroke-width="1.066978" stroke-linecap="butt" stroke-linejoin="round" stroke="rgb(100%, 100%, 100%)" stroke-opacity="1" stroke-miterlimit="10" d="M 252.4375 326.847656 L 252.4375 44.675781 "/>
</g>
<g clip-path="url(#clip-17)">
<path fill="none" stroke-width="1.066978" stroke-linecap="butt" stroke-linejoin="round" stroke="rgb(100%, 100%, 100%)" stroke-opacity="1" stroke-miterlimit="10" d="M 336.914062 326.847656 L 336.914062 44.675781 "/>
</g>
<g clip-path="url(#clip-18)">
<path fill="none" stroke-width="1.066978" stroke-linecap="butt" stroke-linejoin="round" stroke="rgb(100%, 100%, 100%)" stroke-opacity="1" stroke-miterlimit="10" d="M 421.390625 326.847656 L 421.390625 44.675781 "/>
</g>
<path fill-rule="nonzero" fill="rgb(100%, 54.901961%, 0%)" fill-opacity="0.698039" d="M 60.03125 314.023438 L 68.382812 314.023438 L 68.382812 309.917969 L 60.03125 309.917969 Z M 60.03125 314.023438 "/>
<path fill-rule="nonzero" fill="rgb(100%, 54.901961%, 0%)" fill-opacity="0.698039" d="M 76.734375 314.023438 L 85.085938 314.023438 L 85.085938 311.972656 L 76.734375 311.972656 Z M 76.734375 314.023438 "/>
<path fill-rule="nonzero" fill="rgb(100%, 54.901961%, 0%)" fill-opacity="0.698039" d="M 85.085938 314.023438 L 93.4375 314.023438 L 93.4375 309.917969 L 85.085938 309.917969 Z M 85.085938 314.023438 "/>
<path fill-rule="nonzero" fill="rgb(100%, 54.901961%, 0%)" fill-opacity="0.698039" d="M 93.441406 314.023438 L 101.792969 314.023438 L 101.792969 301.710938 L 93.441406 301.710938 Z M 93.441406 314.023438 "/>
<path fill-rule="nonzero" fill="rgb(100%, 54.901961%, 0%)" fill-opacity="0.698039" d="M 101.792969 314.023438 L 110.144531 314.023438 L 110.144531 262.71875 L 101.792969 262.71875 Z M 101.792969 314.023438 "/>
<path fill-rule="nonzero" fill="rgb(100%, 54.901961%, 0%)" fill-opacity="0.698039" d="M 110.144531 314.023438 L 118.496094 314.023438 L 118.496094 250.40625 L 110.144531 250.40625 Z M 110.144531 314.023438 "/>
<path fill-rule="nonzero" fill="rgb(100%, 54.901961%, 0%)" fill-opacity="0.698039" d="M 118.496094 314.023438 L 126.847656 314.023438 L 126.847656 205.257812 L 118.496094 205.257812 Z M 118.496094 314.023438 "/>
<path fill-rule="nonzero" fill="rgb(100%, 54.901961%, 0%)" fill-opacity="0.698039" d="M 126.847656 314.023438 L 135.199219 314.023438 L 135.199219 168.320312 L 126.847656 168.320312 Z M 126.847656 314.023438 "/>
<path fill-rule="nonzero" fill="rgb(100%, 54.901961%, 0%)" fill-opacity="0.698039" d="M 135.199219 314.023438 L 143.550781 314.023438 L 143.550781 123.171875 L 135.199219 123.171875 Z M 135.199219 314.023438 "/>
<path fill-rule="nonzero" fill="rgb(100%, 54.901961%, 0%)" fill-opacity="0.698039" d="M 143.554688 314.023438 L 151.90625 314.023438 L 151.90625 117.015625 L 143.554688 117.015625 Z M 143.554688 314.023438 "/>
<path fill-rule="nonzero" fill="rgb(100%, 54.901961%, 0%)" fill-opacity="0.698039" d="M 151.90625 314.023438 L 160.257812 314.023438 L 160.257812 57.503906 L 151.90625 57.503906 Z M 151.90625 314.023438 "/>
<path fill-rule="nonzero" fill="rgb(100%, 54.901961%, 0%)" fill-opacity="0.698039" d="M 160.257812 314.023438 L 168.609375 314.023438 L 168.609375 84.179688 L 160.257812 84.179688 Z M 160.257812 314.023438 "/>
<path fill-rule="nonzero" fill="rgb(100%, 54.901961%, 0%)" fill-opacity="0.698039" d="M 168.609375 314.023438 L 176.960938 314.023438 L 176.960938 121.121094 L 168.609375 121.121094 Z M 168.609375 314.023438 "/>
<path fill-rule="nonzero" fill="rgb(100%, 54.901961%, 0%)" fill-opacity="0.698039" d="M 176.960938 314.023438 L 185.3125 314.023438 L 185.3125 117.015625 L 176.960938 117.015625 Z M 176.960938 314.023438 "/>
<path fill-rule="nonzero" fill="rgb(100%, 54.901961%, 0%)" fill-opacity="0.698039" d="M 185.3125 314.023438 L 193.664062 314.023438 L 193.664062 180.632812 L 185.3125 180.632812 Z M 185.3125 314.023438 "/>
<path fill-rule="nonzero" fill="rgb(100%, 54.901961%, 0%)" fill-opacity="0.698039" d="M 193.664062 314.023438 L 202.015625 314.023438 L 202.015625 182.683594 L 193.664062 182.683594 Z M 193.664062 314.023438 "/>
<path fill-rule="nonzero" fill="rgb(100%, 54.901961%, 0%)" fill-opacity="0.698039" d="M 202.019531 314.023438 L 210.371094 314.023438 L 210.371094 246.300781 L 202.019531 246.300781 Z M 202.019531 314.023438 "/>
<path fill-rule="nonzero" fill="rgb(100%, 54.901961%, 0%)" fill-opacity="0.698039" d="M 210.371094 314.023438 L 218.722656 314.023438 L 218.722656 285.292969 L 210.371094 285.292969 Z M 210.371094 314.023438 "/>
<path fill-rule="nonzero" fill="rgb(100%, 54.901961%, 0%)" fill-opacity="0.698039" d="M 218.722656 314.023438 L 227.074219 314.023438 L 227.074219 289.398438 L 218.722656 289.398438 Z M 218.722656 314.023438 "/>
<path fill-rule="nonzero" fill="rgb(100%, 54.901961%, 0%)" fill-opacity="0.698039" d="M 227.074219 314.023438 L 235.425781 314.023438 L 235.425781 311.972656 L 227.074219 311.972656 Z M 227.074219 314.023438 "/>
<path fill-rule="nonzero" fill="rgb(100%, 54.901961%, 0%)" fill-opacity="0.698039" d="M 235.425781 314.023438 L 243.777344 314.023438 L 243.777344 307.867188 L 235.425781 307.867188 Z M 235.425781 314.023438 "/>
<path fill-rule="nonzero" fill="rgb(100%, 54.901961%, 0%)" fill-opacity="0.698039" d="M 268.835938 314.023438 L 277.1875 314.023438 L 277.1875 311.972656 L 268.835938 311.972656 Z M 268.835938 314.023438 "/>
<path fill-rule="nonzero" fill="rgb(27.45098%, 50.980392%, 70.588235%)" fill-opacity="0.698039" d="M 252.132812 314.023438 L 260.484375 314.023438 L 260.484375 311.972656 L 252.132812 311.972656 Z M 252.132812 314.023438 "/>
<path fill-rule="nonzero" fill="rgb(27.45098%, 50.980392%, 70.588235%)" fill-opacity="0.698039" d="M 260.484375 314.023438 L 268.835938 314.023438 L 268.835938 311.972656 L 260.484375 311.972656 Z M 260.484375 314.023438 "/>
<path fill-rule="nonzero" fill="rgb(27.45098%, 50.980392%, 70.588235%)" fill-opacity="0.698039" d="M 268.835938 314.023438 L 277.1875 314.023438 L 277.1875 311.972656 L 268.835938 311.972656 Z M 268.835938 314.023438 "/>
<path fill-rule="nonzero" fill="rgb(27.45098%, 50.980392%, 70.588235%)" fill-opacity="0.698039" d="M 277.1875 314.023438 L 285.539062 314.023438 L 285.539062 307.867188 L 277.1875 307.867188 Z M 277.1875 314.023438 "/>
<path fill-rule="nonzero" fill="rgb(27.45098%, 50.980392%, 70.588235%)" fill-opacity="0.698039" d="M 285.539062 314.023438 L 293.890625 314.023438 L 293.890625 307.867188 L 285.539062 307.867188 Z M 285.539062 314.023438 "/>
<path fill-rule="nonzero" fill="rgb(27.45098%, 50.980392%, 70.588235%)" fill-opacity="0.698039" d="M 293.890625 314.023438 L 302.242188 314.023438 L 302.242188 297.605469 L 293.890625 297.605469 Z M 293.890625 314.023438 "/>
<path fill-rule="nonzero" fill="rgb(27.45098%, 50.980392%, 70.588235%)" fill-opacity="0.698039" d="M 302.246094 314.023438 L 310.597656 314.023438 L 310.597656 264.773438 L 302.246094 264.773438 Z M 302.246094 314.023438 "/>
<path fill-rule="nonzero" fill="rgb(27.45098%, 50.980392%, 70.588235%)" fill-opacity="0.698039" d="M 310.597656 314.023438 L 318.949219 314.023438 L 318.949219 236.042969 L 310.597656 236.042969 Z M 310.597656 314.023438 "/>
<path fill-rule="nonzero" fill="rgb(27.45098%, 50.980392%, 70.588235%)" fill-opacity="0.698039" d="M 318.949219 314.023438 L 327.300781 314.023438 L 327.300781 229.886719 L 318.949219 229.886719 Z M 318.949219 314.023438 "/>
<path fill-rule="nonzero" fill="rgb(27.45098%, 50.980392%, 70.588235%)" fill-opacity="0.698039" d="M 327.300781 314.023438 L 335.652344 314.023438 L 335.652344 170.371094 L 327.300781 170.371094 Z M 327.300781 314.023438 "/>
<path fill-rule="nonzero" fill="rgb(27.45098%, 50.980392%, 70.588235%)" fill-opacity="0.698039" d="M 335.652344 314.023438 L 344.003906 314.023438 L 344.003906 162.164062 L 335.652344 162.164062 Z M 335.652344 314.023438 "/>
<path fill-rule="nonzero" fill="rgb(27.45098%, 50.980392%, 70.588235%)" fill-opacity="0.698039" d="M 344.003906 314.023438 L 352.355469 314.023438 L 352.355469 158.058594 L 344.003906 158.058594 Z M 344.003906 314.023438 "/>
<path fill-rule="nonzero" fill="rgb(27.45098%, 50.980392%, 70.588235%)" fill-opacity="0.698039" d="M 352.355469 314.023438 L 360.707031 314.023438 L 360.707031 84.179688 L 352.355469 84.179688 Z M 352.355469 314.023438 "/>
<path fill-rule="nonzero" fill="rgb(27.45098%, 50.980392%, 70.588235%)" fill-opacity="0.698039" d="M 360.710938 314.023438 L 369.0625 314.023438 L 369.0625 90.339844 L 360.710938 90.339844 Z M 360.710938 314.023438 "/>
<path fill-rule="nonzero" fill="rgb(27.45098%, 50.980392%, 70.588235%)" fill-opacity="0.698039" d="M 369.0625 314.023438 L 377.414062 314.023438 L 377.414062 112.910156 L 369.0625 112.910156 Z M 369.0625 314.023438 "/>
<path fill-rule="nonzero" fill="rgb(27.45098%, 50.980392%, 70.588235%)" fill-opacity="0.698039" d="M 377.414062 314.023438 L 385.765625 314.023438 L 385.765625 137.539062 L 377.414062 137.539062 Z M 377.414062 314.023438 "/>
<path fill-rule="nonzero" fill="rgb(27.45098%, 50.980392%, 70.588235%)" fill-opacity="0.698039" d="M 385.765625 314.023438 L 394.117188 314.023438 L 394.117188 158.058594 L 385.765625 158.058594 Z M 385.765625 314.023438 "/>
<path fill-rule="nonzero" fill="rgb(27.45098%, 50.980392%, 70.588235%)" fill-opacity="0.698039" d="M 394.117188 314.023438 L 402.46875 314.023438 L 402.46875 186.789062 L 394.117188 186.789062 Z M 394.117188 314.023438 "/>
<path fill-rule="nonzero" fill="rgb(27.45098%, 50.980392%, 70.588235%)" fill-opacity="0.698039" d="M 402.46875 314.023438 L 410.820312 314.023438 L 410.820312 219.625 L 402.46875 219.625 Z M 402.46875 314.023438 "/>
<path fill-rule="nonzero" fill="rgb(27.45098%, 50.980392%, 70.588235%)" fill-opacity="0.698039" d="M 410.824219 314.023438 L 419.175781 314.023438 L 419.175781 244.25 L 410.824219 244.25 Z M 410.824219 314.023438 "/>
<path fill-rule="nonzero" fill="rgb(27.45098%, 50.980392%, 70.588235%)" fill-opacity="0.698039" d="M 419.175781 314.023438 L 427.527344 314.023438 L 427.527344 281.1875 L 419.175781 281.1875 Z M 419.175781 314.023438 "/>
<path fill-rule="nonzero" fill="rgb(27.45098%, 50.980392%, 70.588235%)" fill-opacity="0.698039" d="M 427.527344 314.023438 L 435.878906 314.023438 L 435.878906 297.605469 L 427.527344 297.605469 Z M 427.527344 314.023438 "/>
<path fill-rule="nonzero" fill="rgb(27.45098%, 50.980392%, 70.588235%)" fill-opacity="0.698039" d="M 435.878906 314.023438 L 444.230469 314.023438 L 444.230469 295.554688 L 435.878906 295.554688 Z M 435.878906 314.023438 "/>
<path fill-rule="nonzero" fill="rgb(27.45098%, 50.980392%, 70.588235%)" fill-opacity="0.698039" d="M 444.230469 314.023438 L 452.582031 314.023438 L 452.582031 311.972656 L 444.230469 311.972656 Z M 444.230469 314.023438 "/>
<path fill-rule="nonzero" fill="rgb(27.45098%, 50.980392%, 70.588235%)" fill-opacity="0.698039" d="M 452.582031 314.023438 L 460.933594 314.023438 L 460.933594 309.917969 L 452.582031 309.917969 Z M 452.582031 314.023438 "/>
<path fill-rule="nonzero" fill="rgb(27.45098%, 50.980392%, 70.588235%)" fill-opacity="0.698039" d="M 469.289062 314.023438 L 477.640625 314.023438 L 477.640625 311.972656 L 469.289062 311.972656 Z M 469.289062 314.023438 "/>
<g clip-path="url(#clip-19)">
<path fill="none" stroke-width="2.133957" stroke-linecap="butt" stroke-linejoin="round" stroke="rgb(100%, 0%, 0%)" stroke-opacity="1" stroke-miterlimit="10" d="M 363.542969 326.847656 L 363.542969 44.675781 "/>
</g>
<g fill="rgb(30.196078%, 30.196078%, 30.196078%)" fill-opacity="1">
<use xlink:href="#glyph-0-1" x="29.21875" y="317.299805"/>
</g>
<g fill="rgb(30.196078%, 30.196078%, 30.196078%)" fill-opacity="1">
<use xlink:href="#glyph-0-2" x="24.21875" y="235.213867"/>
<use xlink:href="#glyph-0-1" x="29.21875" y="235.213867"/>
</g>
<g fill="rgb(30.196078%, 30.196078%, 30.196078%)" fill-opacity="1">
<use xlink:href="#glyph-0-3" x="24.21875" y="153.12793"/>
<use xlink:href="#glyph-0-1" x="29.21875" y="153.12793"/>
</g>
<g fill="rgb(30.196078%, 30.196078%, 30.196078%)" fill-opacity="1">
<use xlink:href="#glyph-0-4" x="19.21875" y="71.041992"/>
<use xlink:href="#glyph-0-5" x="24.21875" y="71.041992"/>
<use xlink:href="#glyph-0-1" x="29.21875" y="71.041992"/>
</g>
<path fill="none" stroke-width="1.066978" stroke-linecap="butt" stroke-linejoin="round" stroke="rgb(20%, 20%, 20%)" stroke-opacity="1" stroke-miterlimit="10" d="M 36.410156 314.023438 L 39.152344 314.023438 "/>
<path fill="none" stroke-width="1.066978" stroke-linecap="butt" stroke-linejoin="round" stroke="rgb(20%, 20%, 20%)" stroke-opacity="1" stroke-miterlimit="10" d="M 36.410156 231.9375 L 39.152344 231.9375 "/>
<path fill="none" stroke-width="1.066978" stroke-linecap="butt" stroke-linejoin="round" stroke="rgb(20%, 20%, 20%)" stroke-opacity="1" stroke-miterlimit="10" d="M 36.410156 149.851562 L 39.152344 149.851562 "/>
<path fill="none" stroke-width="1.066978" stroke-linecap="butt" stroke-linejoin="round" stroke="rgb(20%, 20%, 20%)" stroke-opacity="1" stroke-miterlimit="10" d="M 36.410156 67.765625 L 39.152344 67.765625 "/>
<path fill="none" stroke-width="1.066978" stroke-linecap="butt" stroke-linejoin="round" stroke="rgb(20%, 20%, 20%)" stroke-opacity="1" stroke-miterlimit="10" d="M 83.484375 329.589844 L 83.484375 326.847656 "/>
<path fill="none" stroke-width="1.066978" stroke-linecap="butt" stroke-linejoin="round" stroke="rgb(20%, 20%, 20%)" stroke-opacity="1" stroke-miterlimit="10" d="M 167.960938 329.589844 L 167.960938 326.847656 "/>
<path fill="none" stroke-width="1.066978" stroke-linecap="butt" stroke-linejoin="round" stroke="rgb(20%, 20%, 20%)" stroke-opacity="1" stroke-miterlimit="10" d="M 252.4375 329.589844 L 252.4375 326.847656 "/>
<path fill="none" stroke-width="1.066978" stroke-linecap="butt" stroke-linejoin="round" stroke="rgb(20%, 20%, 20%)" stroke-opacity="1" stroke-miterlimit="10" d="M 336.914062 329.589844 L 336.914062 326.847656 "/>
<path fill="none" stroke-width="1.066978" stroke-linecap="butt" stroke-linejoin="round" stroke="rgb(20%, 20%, 20%)" stroke-opacity="1" stroke-miterlimit="10" d="M 421.390625 329.589844 L 421.390625 326.847656 "/>
<g fill="rgb(30.196078%, 30.196078%, 30.196078%)" fill-opacity="1">
<use xlink:href="#glyph-0-6" x="67.484375" y="338.557617"/>
<use xlink:href="#glyph-0-2" x="72.484375" y="338.557617"/>
<use xlink:href="#glyph-0-7" x="77.484375" y="338.557617"/>
<use xlink:href="#glyph-0-8" x="82.484375" y="338.557617"/>
<use xlink:href="#glyph-0-1" x="84.484375" y="338.557617"/>
<use xlink:href="#glyph-0-1" x="89.484375" y="338.557617"/>
<use xlink:href="#glyph-0-1" x="94.484375" y="338.557617"/>
</g>
<g fill="rgb(30.196078%, 30.196078%, 30.196078%)" fill-opacity="1">
<use xlink:href="#glyph-0-6" x="151.960938" y="338.557617"/>
<use xlink:href="#glyph-0-2" x="156.960938" y="338.557617"/>
<use xlink:href="#glyph-0-2" x="161.960938" y="338.557617"/>
<use xlink:href="#glyph-0-8" x="166.960938" y="338.557617"/>
<use xlink:href="#glyph-0-1" x="168.960938" y="338.557617"/>
<use xlink:href="#glyph-0-1" x="173.960938" y="338.557617"/>
<use xlink:href="#glyph-0-1" x="178.960938" y="338.557617"/>
</g>
<g fill="rgb(30.196078%, 30.196078%, 30.196078%)" fill-opacity="1">
<use xlink:href="#glyph-0-6" x="236.4375" y="338.557617"/>
<use xlink:href="#glyph-0-2" x="241.4375" y="338.557617"/>
<use xlink:href="#glyph-0-9" x="246.4375" y="338.557617"/>
<use xlink:href="#glyph-0-8" x="251.4375" y="338.557617"/>
<use xlink:href="#glyph-0-1" x="253.4375" y="338.557617"/>
<use xlink:href="#glyph-0-1" x="258.4375" y="338.557617"/>
<use xlink:href="#glyph-0-1" x="263.4375" y="338.557617"/>
</g>
<g fill="rgb(30.196078%, 30.196078%, 30.196078%)" fill-opacity="1">
<use xlink:href="#glyph-0-6" x="320.914062" y="338.557617"/>
<use xlink:href="#glyph-0-2" x="325.914062" y="338.557617"/>
<use xlink:href="#glyph-0-10" x="330.914062" y="338.557617"/>
<use xlink:href="#glyph-0-8" x="335.914062" y="338.557617"/>
<use xlink:href="#glyph-0-1" x="337.914062" y="338.557617"/>
<use xlink:href="#glyph-0-1" x="342.914062" y="338.557617"/>
<use xlink:href="#glyph-0-1" x="347.914062" y="338.557617"/>
</g>
<g fill="rgb(30.196078%, 30.196078%, 30.196078%)" fill-opacity="1">
<use xlink:href="#glyph-0-6" x="405.390625" y="338.557617"/>
<use xlink:href="#glyph-0-2" x="410.390625" y="338.557617"/>
<use xlink:href="#glyph-0-11" x="415.390625" y="338.557617"/>
<use xlink:href="#glyph-0-8" x="420.390625" y="338.557617"/>
<use xlink:href="#glyph-0-1" x="422.390625" y="338.557617"/>
<use xlink:href="#glyph-0-1" x="427.390625" y="338.557617"/>
<use xlink:href="#glyph-0-1" x="432.390625" y="338.557617"/>
</g>
<g fill="rgb(0%, 0%, 0%)" fill-opacity="1">
<use xlink:href="#glyph-1-1" x="210.835938" y="350.990234"/>
<use xlink:href="#glyph-1-2" x="217.835938" y="350.990234"/>
<use xlink:href="#glyph-1-3" x="223.835938" y="350.990234"/>
<use xlink:href="#glyph-1-4" x="226.835938" y="350.990234"/>
<use xlink:href="#glyph-1-5" x="228.835938" y="350.990234"/>
<use xlink:href="#glyph-1-6" x="237.835938" y="350.990234"/>
<use xlink:href="#glyph-1-3" x="243.835938" y="350.990234"/>
<use xlink:href="#glyph-1-7" x="246.835938" y="350.990234"/>
<use xlink:href="#glyph-1-8" x="252.835938" y="350.990234"/>
<use xlink:href="#glyph-1-9" x="258.835938" y="350.990234"/>
<use xlink:href="#glyph-1-5" x="261.835938" y="350.990234"/>
<use xlink:href="#glyph-1-7" x="270.835938" y="350.990234"/>
<use xlink:href="#glyph-1-6" x="276.835938" y="350.990234"/>
<use xlink:href="#glyph-1-10" x="282.835938" y="350.990234"/>
<use xlink:href="#glyph-1-9" x="288.835938" y="350.990234"/>
<use xlink:href="#glyph-1-4" x="291.835938" y="350.990234"/>
<use xlink:href="#glyph-1-10" x="293.835938" y="350.990234"/>
<use xlink:href="#glyph-1-11" x="299.835938" y="350.990234"/>
<use xlink:href="#glyph-1-12" x="305.835938" y="350.990234"/>
<use xlink:href="#glyph-1-5" x="311.835938" y="350.990234"/>
<use xlink:href="#glyph-1-7" x="320.835938" y="350.990234"/>
</g>
<g fill="rgb(0%, 0%, 0%)" fill-opacity="1">
<use xlink:href="#glyph-2-1" x="12.951172" y="200.261719"/>
<use xlink:href="#glyph-2-2" x="12.951172" y="192.261719"/>
<use xlink:href="#glyph-2-3" x="12.951172" y="186.261719"/>
<use xlink:href="#glyph-2-4" x="12.951172" y="180.261719"/>
<use xlink:href="#glyph-2-5" x="12.951172" y="174.261719"/>
</g>
<path fill-rule="nonzero" fill="rgb(100%, 100%, 100%)" fill-opacity="1" d="M 194.355469 33.71875 L 343.3125 33.71875 L 343.3125 5.480469 L 194.355469 5.480469 Z M 194.355469 33.71875 "/>
<path fill-rule="nonzero" fill="rgb(92.156863%, 92.156863%, 92.156863%)" fill-opacity="1" d="M 199.835938 28.238281 L 217.117188 28.238281 L 217.117188 10.957031 L 199.835938 10.957031 Z M 199.835938 28.238281 "/>
<path fill-rule="nonzero" fill="rgb(100%, 54.901961%, 0%)" fill-opacity="0.698039" d="M 200.546875 27.53125 L 216.410156 27.53125 L 216.410156 11.667969 L 200.546875 11.667969 Z M 200.546875 27.53125 "/>
<path fill-rule="nonzero" fill="rgb(92.156863%, 92.156863%, 92.156863%)" fill-opacity="1" d="M 250.074219 28.238281 L 267.355469 28.238281 L 267.355469 10.957031 L 250.074219 10.957031 Z M 250.074219 28.238281 "/>
<path fill-rule="nonzero" fill="rgb(27.45098%, 50.980392%, 70.588235%)" fill-opacity="0.698039" d="M 250.785156 27.53125 L 266.648438 27.53125 L 266.648438 11.667969 L 250.785156 11.667969 Z M 250.785156 27.53125 "/>
<g fill="rgb(0%, 0%, 0%)" fill-opacity="1">
<use xlink:href="#glyph-0-12" x="222.597656" y="22.874023"/>
<use xlink:href="#glyph-0-13" x="228.597656" y="22.874023"/>
<use xlink:href="#glyph-0-14" x="233.597656" y="22.874023"/>
<use xlink:href="#glyph-0-15" x="235.597656" y="22.874023"/>
<use xlink:href="#glyph-0-16" x="239.597656" y="22.874023"/>
</g>
<g fill="rgb(0%, 0%, 0%)" fill-opacity="1">
<use xlink:href="#glyph-0-17" x="272.835938" y="22.874023"/>
<use xlink:href="#glyph-0-18" x="278.835938" y="22.874023"/>
<use xlink:href="#glyph-0-19" x="283.835938" y="22.874023"/>
<use xlink:href="#glyph-0-15" x="286.835938" y="22.874023"/>
<use xlink:href="#glyph-0-16" x="290.835938" y="22.874023"/>
<use xlink:href="#glyph-0-20" x="295.835938" y="22.874023"/>
<use xlink:href="#glyph-0-21" x="299.835938" y="22.874023"/>
<use xlink:href="#glyph-0-22" x="302.835938" y="22.874023"/>
<use xlink:href="#glyph-0-16" x="308.835938" y="22.874023"/>
<use xlink:href="#glyph-0-14" x="313.835938" y="22.874023"/>
<use xlink:href="#glyph-0-23" x="315.835938" y="22.874023"/>
<use xlink:href="#glyph-0-24" x="320.835938" y="22.874023"/>
<use xlink:href="#glyph-0-25" x="325.835938" y="22.874023"/>
<use xlink:href="#glyph-0-16" x="327.835938" y="22.874023"/>
<use xlink:href="#glyph-0-26" x="332.835938" y="22.874023"/>
</g>
</svg>
